<?xml version="1.0" encoding="UTF-8"?><svg id="Layer_1" xmlns="http://www.w3.org/2000/svg" viewBox="0 0 295.2 170"><defs><style>.cls-1{fill:#ffc81a;fill-rule:evenodd;stroke:#000;stroke-miterlimit:10;}</style></defs><path class="cls-1" d="M20.6,161.8l-8.6-2.3-6.8-5.2,9-17.6s-19.8-6.6-11.7-34.6c8.1-28,13.1-31.7,23.9-44.7,5.2-6.3,8.7-9.7,11.6-12.5,11-10.6,19.8-16.6,37.3-18.2,0,0,4.1-6.3,5.2-13.5,1.1-7.1,10.7-17,23.9-10.7,13.1,6.3,17.9,12.7,13.8,15.8-4.2,3.1-5.4,9.3-5,12.2,.4,2.9,.2,8.6-1.6,7.5-1.8-1-3.9,1.6-4,2.2,0,.6-2.1,0-2.1,1-.9,9.5-5.2,7.1-13.7,2.4,0,0-3.5,.3,1.5,6.8,5,6.5,7.4,12.8,11.7,14.7,4.3,1.9,16.7,5.5,23.5,6.8,6.8,1.3,9.9,17.8-2.2,22.6,0,0-2-.3-2-5.1s-3.8-9.2-4-5.3c0,3.9-2.4,10-4.2,4.5,0,0,.3-7.1-1.3-7.7-1.5-.6-5.2-.9-5.6,.5-.5,1.4,0,12.7-1.2,13.9-1.2,1.2-26.9,26.4-26.9,26.4,0,0-24.8,16.1-17,28.9,0,0,2.5,4.5,8.3,4.5l9.9,.3s5,3.4,.3,4.5c-4.7,1.1-40,3-40,3,0,0-.3-2.5-.3-3.6s-3.2-3.6-3.2-3.6l.3,5.7-18.8,.3Zm16.1-9.9s-6.1-7.2-.9-12.5c5.2-5.4,16.3-11.3,16.3-11.3,0,0,8.1-3-1.3,7-9.3,10-14.2,16.8-14.2,16.8h0Zm42.6-75.2l1-9.5s.5-2.9,3.5-.2c1.4,1.4,3.5,3.8,5,5.7,.3,.5,.7,.9,1,1.3,2.2,2.9-.3,2.9-2.6,2.9-4,0-7.8-.3-7.8-.3h0Z"/><path class="cls-1" d="M158,60.1s-4,1-6.9,.8c-5.7-.3-8.8-2-5.5,7.8,2.2,6.4,7.5,6.5,8.5,6.8,1.2,.3,13,5,17.5,13.6,4.5,8.6,3.8,12.4,3.8,12.4,0,0-5.7,14.5,9.5,29.3,0,0,3.2,10,3.2,20.8v2.9s-11.3,1.8-7.4,4.7l16,.7,1.6-22.6s4.5-.3,8.3,4.5c0,0-2.5,3.2,3.8,6.8,6.3,3.6,15.3,7.7,6.8,7.5-8.5-.2-12.2,.4-14.4,4.9l16.7,1.3s27.8,9.7,40.4,7c7.1-1.5,11.4-3.4,15.1-5.1,5.6-2.6,10.1-5.4,14.4-8.2,11-7.1,3.2-7-6.2-1.9-13.6,7.3-18.4,8.7-26.2,7.3,0,0,.5-28.1-15.8-43.6-16.3-15.4-28.9-27.4-30.3-27.8-1.4-.4-22.1-18.1-25.8-25.1,0,0-2.4-9.7-11.6-9.3-9.2,.3-9.8,.3-11.8,2.3-2,2-3.6,2.5-3.6,2.5h0Zm13.3,8c-1,1.9-1.2,3-1.3,4.1,0,.9,.4,1.5,1.6,1.8h.1c1,.2,2.6-.4,4.3-1.4,2.2-1.3,5-4.1,6.5-5.9-1,3.9-7.3,9.8-11.5,9.1h-.2c-1.9-.5-2.6-1.6-2.6-3.1,0-1.4,.7-3.1,1.9-5.1,2.1-3.7,1.7-9,1.7-9.1,1.6,2.8,.4,8-.6,9.7h0Z"/></svg>