<?xml version="1.0" encoding="utf-8"?>
<!-- Generator: Adobe Illustrator 27.0.1, SVG Export Plug-In . SVG Version: 6.00 Build 0)  -->
<svg version="1.1" xmlns="http://www.w3.org/2000/svg" xmlns:xlink="http://www.w3.org/1999/xlink" x="0px" y="0px"
	 viewBox="0 0 65.4 66" style="enable-background:new 0 0 65.4 66;" xml:space="preserve">
<style type="text/css">
	.st0{opacity:0.5;fill:#FFFFFF;}
	.st1{fill-rule:evenodd;clip-rule:evenodd;fill:#FFC81A;stroke:#000000;stroke-miterlimit:10;}
	.st2{enable-background:new    ;}
</style>
<g id="Layer_1">
</g>
<g id="Layer_2">
	<g>
		<rect class="st0" width="65" height="66"/>
		<g>
			<g>
				<ellipse transform="matrix(0.9971 -7.671903e-02 7.671903e-02 0.9971 -0.7846 1.9705)" cx="25.3" cy="11.2" rx="5.7" ry="8.8"/>
				<ellipse transform="matrix(9.931970e-02 -0.9951 0.9951 9.931970e-02 24.4061 49.435)" cx="39.5" cy="11.2" rx="8.8" ry="5.7"/>
				<ellipse transform="matrix(0.5 -0.866 0.866 0.5 5.9211 55.0908)" cx="50.7" cy="22.4" rx="8.1" ry="5.7"/>
				<ellipse transform="matrix(0.8499 -0.527 0.527 0.8499 -9.6637 10.9041)" cx="14.3" cy="22.4" rx="5.7" ry="8.1"/>
				<path d="M37.3,48.9c-1.8-0.6-3.4-0.9-4.9-1c-1.5,0.1-3.1,0.4-4.9,1c-11.4,3.6-15.4-7.7-9.8-11.5c8.1-5.4,7.5-13.5,14.7-12.8
					c8,0.8,6.8,6.7,14.7,12.8C53.5,42.3,48.7,52.4,37.3,48.9z"/>
			</g>
			<g>
				<path class="st1" d="M21.9,46.6l-0.8-0.2l-0.6-0.5l0.9-1.7c0,0-1.9-0.6-1.1-3.3c0.8-2.6,1.2-3,2.3-4.2c0.5-0.6,0.8-0.9,1.1-1.2
					c1-1,1.9-1.6,3.5-1.7c0,0,0.4-0.6,0.5-1.3c0.1-0.7,1-1.6,2.3-1c1.2,0.6,1.7,1.2,1.3,1.5c-0.4,0.3-0.5,0.9-0.5,1.2
					c0,0.3,0,0.8-0.2,0.7c-0.2,0-0.4,0.1-0.4,0.2H30c0,0.9-0.5,0.7-1.3,0.2c0,0-0.3,0,0.1,0.6c0.5,0.6,0.7,1.2,1.1,1.4
					s1.6,0.5,2.2,0.6c0.6,0.1,0.9,1.7-0.2,2.1c0,0-0.2,0-0.2-0.5s-0.4-0.9-0.4-0.5s-0.2,0.9-0.4,0.4c0,0,0-0.7-0.1-0.7s-0.5,0-0.5,0
					c0,0.1,0,1.2-0.1,1.3s-2.5,2.5-2.5,2.5s-2.3,1.5-1.6,2.7c0,0,0.2,0.4,0.8,0.4h0.9c0,0,0.5,0.4,0,0.5c-0.4,0.1-3.8,0.3-3.8,0.3
					s0-0.2,0-0.3s-0.3-0.3-0.3-0.3v0.5H22L21.9,46.6z M23.4,45.7c0,0-0.6-0.7,0-1.2c0.5-0.5,1.5-1.1,1.5-1.1s0.8-0.3-0.1,0.7
					c-0.9,0.9-1.3,1.6-1.3,1.6l0,0H23.4z M27.4,38.6v-0.9c0,0,0.1-0.3,0.4,0c0.1,0.1,0.3,0.4,0.5,0.5c0,0,0,0,0,0.1
					c0.2,0.3,0,0.3-0.2,0.3C27.7,38.6,27.4,38.6,27.4,38.6C27.4,38.6,27.4,38.6,27.4,38.6z"/>
				<path class="st1" d="M34.9,37c0,0-0.4,0-0.7,0c-0.5,0-0.8-0.2-0.5,0.7c0.2,0.6,0.7,0.6,0.8,0.6s1.2,0.5,1.7,1.3
					c0.4,0.8,0.4,1.2,0.4,1.2s-0.5,1.4,0.9,2.8c0,0,0.3,0.9,0.3,2v0.3c0,0-1.1,0.2-0.7,0.4h1.5l0.2-2.1c0,0,0.4,0,0.8,0.4
					c0,0-0.2,0.3,0.4,0.6c0.6,0.3,1.4,0.7,0.6,0.7c-0.8,0-1.2,0-1.4,0.5h1.6c0,0.1,2.6,1,3.8,0.8c0.7-0.1,1.1-0.3,1.4-0.5
					c0.5-0.2,1-0.5,1.4-0.8c1-0.7,0.3-0.7-0.6-0.2c-1.3,0.7-1.7,0.8-2.5,0.7c0,0,0-2.7-1.5-4.1c-1.5-1.5-2.7-2.6-2.9-2.6
					c-0.1,0-2.1-1.7-2.4-2.4c0,0-0.2-0.9-1.1-0.9c-0.9,0-0.9,0-1.1,0.2c-0.2,0.2-0.3,0.2-0.3,0.2l0,0L34.9,37z M36.2,37.8
					c0,0.2-0.1,0.3-0.1,0.4c0,0,0,0.1,0.1,0.2l0,0c0,0,0.2,0,0.4-0.1s0.5-0.4,0.6-0.6c0,0.4-0.7,0.9-1.1,0.9l0,0
					c-0.2,0-0.2-0.2-0.2-0.3S35.9,38,36.2,37.8c0.1-0.4,0.1-0.9,0.1-0.9c0.1,0.3,0,0.8,0,0.9l0,0L36.2,37.8z"/>
			</g>
		</g>
		<g>
			<g class="st2">
				<path d="M11.5,61.3v-8.2h1.1v3.5h2.1v-3.5h1.1v8.2h-1.1v-3.8h-2.1v3.8H11.5z"/>
				<path d="M21.5,61.4c-0.6,0-1-0.1-1.3-0.3c-0.3-0.2-0.6-0.5-0.7-0.9c-0.1-0.4-0.2-0.9-0.2-1.4v-3.1c0-0.5,0.1-1,0.2-1.4
					c0.1-0.4,0.4-0.7,0.7-0.9c0.3-0.2,0.8-0.3,1.3-0.3c0.6,0,1,0.1,1.3,0.3s0.6,0.5,0.7,0.9c0.1,0.4,0.2,0.8,0.2,1.4v3.1
					c0,0.5-0.1,1-0.2,1.4c-0.1,0.4-0.4,0.7-0.7,0.9S22.1,61.4,21.5,61.4z M21.5,60.5c0.3,0,0.5-0.1,0.7-0.2c0.2-0.1,0.3-0.3,0.3-0.5
					c0.1-0.2,0.1-0.5,0.1-0.8v-3.6c0-0.3,0-0.6-0.1-0.8c-0.1-0.2-0.2-0.4-0.3-0.5c-0.2-0.1-0.4-0.2-0.7-0.2c-0.3,0-0.5,0.1-0.7,0.2
					c-0.2,0.1-0.3,0.3-0.3,0.5c-0.1,0.2-0.1,0.5-0.1,0.8V59c0,0.3,0,0.6,0.1,0.8c0.1,0.2,0.2,0.4,0.3,0.5
					C21,60.4,21.2,60.5,21.5,60.5z"/>
				<path d="M29.3,61.4c-0.6,0-1-0.1-1.4-0.4c-0.3-0.2-0.5-0.6-0.6-1c-0.1-0.4-0.2-0.9-0.2-1.5v-5.4h1.1v5.5c0,0.4,0,0.7,0.1,1
					c0,0.3,0.1,0.5,0.3,0.7s0.4,0.3,0.7,0.3c0.3,0,0.6-0.1,0.7-0.3s0.3-0.4,0.3-0.7c0-0.3,0.1-0.6,0.1-1v-5.5h1.1v5.4
					c0,0.6-0.1,1.1-0.2,1.5c-0.1,0.4-0.3,0.8-0.6,1C30.4,61.3,29.9,61.4,29.3,61.4z"/>
				<path d="M35,61.3v-8.2h0.8l2.3,5.4v-5.4h1v8.2h-0.7L36,55.7v5.6H35z"/>
				<path d="M42.6,61.3v-8.2h1.8c0.6,0,1.1,0.1,1.4,0.3c0.4,0.2,0.6,0.5,0.8,0.8c0.2,0.4,0.2,0.8,0.2,1.4v3c0,0.6-0.1,1.1-0.2,1.5
					s-0.4,0.7-0.7,0.9c-0.3,0.2-0.8,0.3-1.4,0.3H42.6z M43.8,60.5h0.6c0.4,0,0.7-0.1,0.9-0.2c0.2-0.2,0.3-0.4,0.3-0.7
					s0.1-0.7,0.1-1.1v-2.7c0-0.4,0-0.8-0.1-1s-0.2-0.5-0.4-0.6C45.1,54,44.8,54,44.4,54h-0.6V60.5z"/>
				<path d="M52.2,61.4c-0.5,0-0.9-0.1-1.2-0.3c-0.3-0.2-0.6-0.5-0.7-0.8c-0.2-0.4-0.3-0.8-0.3-1.2l1-0.3c0,0.3,0.1,0.6,0.1,0.8
					c0.1,0.3,0.2,0.5,0.3,0.7c0.2,0.2,0.4,0.3,0.7,0.3c0.3,0,0.5-0.1,0.7-0.2c0.2-0.2,0.2-0.4,0.2-0.7c0-0.4-0.1-0.7-0.3-0.9
					c-0.2-0.2-0.4-0.5-0.6-0.7l-1.4-1.2c-0.3-0.2-0.5-0.5-0.6-0.8c-0.1-0.3-0.2-0.6-0.2-1c0-0.6,0.2-1.1,0.5-1.4
					c0.3-0.3,0.8-0.5,1.4-0.5c0.3,0,0.6,0,0.9,0.1c0.2,0.1,0.5,0.2,0.6,0.4s0.3,0.4,0.4,0.7c0.1,0.3,0.2,0.6,0.2,0.9l-1,0.3
					c0-0.3-0.1-0.5-0.1-0.7s-0.2-0.4-0.3-0.5s-0.4-0.2-0.7-0.2c-0.3,0-0.5,0.1-0.7,0.2s-0.2,0.4-0.2,0.7c0,0.2,0,0.5,0.1,0.6
					c0.1,0.2,0.2,0.3,0.4,0.5l1.4,1.2c0.3,0.3,0.6,0.6,0.8,1s0.4,0.8,0.4,1.3c0,0.4-0.1,0.8-0.3,1c-0.2,0.3-0.4,0.5-0.7,0.7
					C52.9,61.3,52.6,61.4,52.2,61.4z"/>
			</g>
		</g>
	</g>
</g>
</svg>
