<?xml version="1.0" encoding="UTF-8"?><svg id="Layer_1" xmlns="http://www.w3.org/2000/svg" viewBox="0 0 65.4 66"><defs><style>.cls-1{font-family:Oswald-SemiBold, Oswald;font-size:10.1px;font-variation-settings:'wght' 600;font-weight:600;}.cls-2{fill:#ffc81a;fill-rule:evenodd;stroke:#000;stroke-miterlimit:10;}</style></defs><text class="cls-1" transform="translate(9.2 59.6)"><tspan x="0" y="0">H O U N D S</tspan></text><g><g><ellipse cx="24.1" cy="8.8" rx="5.7" ry="8.8" transform="translate(-.6 1.9) rotate(-4.4)"/><ellipse cx="38.3" cy="8.8" rx="8.8" ry="5.7" transform="translate(25.8 46.1) rotate(-84.3)"/><ellipse cx="49.6" cy="20" rx="8.1" ry="5.7" transform="translate(7.4 53) rotate(-60)"/><ellipse cx="13.2" cy="20" rx="5.7" ry="8.1" transform="translate(-8.6 10) rotate(-31.8)"/><path d="M36.1,46.5c-1.8-.6-3.4-.9-4.9-1-1.5,.1-3.1,.4-4.9,1-11.4,3.6-15.4-7.7-9.8-11.5,8.1-5.4,7.5-13.5,14.7-12.8,8,.8,6.8,6.7,14.7,12.8,6.4,4.9,1.6,15-9.8,11.5Z"/></g><g><path class="cls-2" d="M20.7,44.2l-.8-.2-.6-.5,.9-1.7s-1.9-.6-1.1-3.3c.8-2.6,1.2-3,2.3-4.2,.5-.6,.8-.9,1.1-1.2,1-1,1.9-1.6,3.5-1.7,0,0,.4-.6,.5-1.3,.1-.7,1-1.6,2.3-1,1.2,.6,1.7,1.2,1.3,1.5-.4,.3-.5,.9-.5,1.2,0,.3,0,.8-.2,.7-.2,0-.4,.1-.4,.2,0,0-.2,0-.2,0,0,.9-.5,.7-1.3,.2,0,0-.3,0,.1,.6,.5,.6,.7,1.2,1.1,1.4,.4,.2,1.6,.5,2.2,.6,.6,.1,.9,1.7-.2,2.1,0,0-.2,0-.2-.5s-.4-.9-.4-.5c0,.4-.2,.9-.4,.4,0,0,0-.7-.1-.7-.1,0-.5,0-.5,0,0,.1,0,1.2-.1,1.3-.1,.1-2.5,2.5-2.5,2.5,0,0-2.3,1.5-1.6,2.7,0,0,.2,.4,.8,.4h.9s.5,.4,0,.5c-.4,.1-3.8,.3-3.8,.3,0,0,0-.2,0-.3s-.3-.3-.3-.3v.5s-1.7,0-1.7,0Zm1.5-.9s-.6-.7,0-1.2c.5-.5,1.5-1.1,1.5-1.1,0,0,.8-.3-.1,.7-.9,.9-1.3,1.6-1.3,1.6h0Zm4-7.1v-.9c0,0,.1-.3,.4,0,.1,.1,.3,.4,.5,.5,0,0,0,0,0,.1,.2,.3,0,.3-.2,.3-.4,0-.7,0-.7,0h0Z"/><path class="cls-2" d="M33.7,34.6s-.4,0-.7,0c-.5,0-.8-.2-.5,.7,.2,.6,.7,.6,.8,.6,.1,0,1.2,.5,1.7,1.3,.4,.8,.4,1.2,.4,1.2,0,0-.5,1.4,.9,2.8,0,0,.3,.9,.3,2v.3s-1.1,.2-.7,.4h1.5c0,0,.2-2.1,.2-2.1,0,0,.4,0,.8,.4,0,0-.2,.3,.4,.6,.6,.3,1.4,.7,.6,.7-.8,0-1.2,0-1.4,.5h1.6c0,.1,2.6,1,3.8,.8,.7-.1,1.1-.3,1.4-.5,.5-.2,1-.5,1.4-.8,1-.7,.3-.7-.6-.2-1.3,.7-1.7,.8-2.5,.7,0,0,0-2.7-1.5-4.1-1.5-1.5-2.7-2.6-2.9-2.6-.1,0-2.1-1.7-2.4-2.4,0,0-.2-.9-1.1-.9-.9,0-.9,0-1.1,.2-.2,.2-.3,.2-.3,.2h0Zm1.3,.8c0,.2-.1,.3-.1,.4,0,0,0,.1,.1,.2h0c0,0,.2,0,.4-.1,.2-.1,.5-.4,.6-.6,0,.4-.7,.9-1.1,.9h0c-.2,0-.2-.2-.2-.3,0-.1,0-.3,.2-.5,.2-.4,.2-.9,.2-.9,.1,.3,0,.8,0,.9h0Z"/></g></g></svg>